<?xml version="1.0" standalone="no"?>
<!DOCTYPE svg PUBLIC "-//W3C//DTD SVG 20010904//EN"
 "http://www.w3.org/TR/2001/REC-SVG-20010904/DTD/svg10.dtd">
<svg version="1.0" xmlns="http://www.w3.org/2000/svg"
 width="300.000000pt" height="28.000000pt" viewBox="0 0 300.000000 28.000000"
 preserveAspectRatio="xMidYMid meet">
<metadata>
Created by potrace 1.10, written by Peter Selinger 2001-2011
</metadata>
<g transform="translate(0.000000,28.000000) scale(0.100000,-0.100000)"
fill="#dddddd" stroke="none">
<path d="M2780 255 c0 -3 13 -26 30 -50 16 -24 34 -55 40 -70 10 -25 9 -26
-17 -21 -70 15 -244 37 -413 53 -141 13 -284 17 -605 17 -446 0 -664 -12
-1070 -59 -219 -25 -637 -86 -631 -93 2 -2 98 6 212 17 255 25 578 48 864 61
421 20 1440 8 1610 -18 l44 -7 -69 -37 c-39 -21 -65 -37 -60 -37 20 0 266 55
268 59 1 3 -44 47 -100 99 -57 51 -103 90 -103 86z"/>
</g>
</svg>
