<?xml version="1.0" standalone="no"?>
<!DOCTYPE svg PUBLIC "-//W3C//DTD SVG 20010904//EN"
 "http://www.w3.org/TR/2001/REC-SVG-20010904/DTD/svg10.dtd">
<svg version="1.0" xmlns="http://www.w3.org/2000/svg"
 width="300.000000pt" height="28.000000pt" viewBox="0 0 300.000000 28.000000"
 preserveAspectRatio="xMidYMid meet">
<metadata>
Created by potrace 1.10, written by Peter Selinger 2001-2011
</metadata>
<g transform="translate(0.000000,28.000000) scale(0.100000,-0.100000)"
fill="#dddddd" stroke="none">
<path d="M143 242 c-67 -15 -122 -31 -122 -37 1 -11 199 -190 199 -180 0 4
-13 26 -30 50 -16 24 -34 55 -40 70 -10 25 -9 26 17 21 177 -37 523 -66 873
-73 486 -9 1003 25 1530 103 91 13 200 29 243 36 138 20 74 20 -139 -1 -255
-25 -578 -48 -864 -61 -421 -20 -1440 -8 -1610 18 l-44 7 69 37 c82 44 78 44
-82 10z"/>
</g>
</svg>
